HIERARCHY
ROOT Hips
{
  OFFSET 5.84602e-005 68.8428 3.50346
  CHANNELS 6 Xposition Yposition Zposition Zrotation Xrotation Yrotation
  JOINT Spine
  {
    OFFSET 0 8.597 -4.6522
    CHANNELS 3 Zrotation Xrotation Yrotation
    JOINT Spine1
    {
      OFFSET 0 7.8454 0.4098
      CHANNELS 3 Zrotation Xrotation Yrotation
      JOINT Spine2
      {
        OFFSET 0 9.7078 -2.1609
        CHANNELS 3 Zrotation Xrotation Yrotation
        JOINT Neck
        {
          OFFSET 0 21.8761 -0.4549
          CHANNELS 3 Zrotation Xrotation Yrotation
          JOINT Head
          {
            OFFSET 0 12.3537 3.3602
            CHANNELS 3 Zrotation Xrotation Yrotation
            End Site
            {
              OFFSET 0.0001 18.9506 0.5657
            }
          }
        }
        JOINT LeftShoulder
        {
          OFFSET 2.2086 21.1115 7.2329
          CHANNELS 3 Zrotation Xrotation Yrotation
          JOINT LeftArm
          {
            OFFSET 13.1193 3.0282 -4.8998
            CHANNELS 3 Zrotation Xrotation Yrotation
            JOINT LeftForeArm
            {
              OFFSET 27.4081 -0.0973053 -0.2375
              CHANNELS 3 Zrotation Xrotation Yrotation
              JOINT LeftHand
              {
                OFFSET 22.8641 0.0662994 -0.1369
                CHANNELS 3 Zrotation Xrotation Yrotation
                JOINT LeftHandIndex1
                {
                  OFFSET 8.8614 0.775009 2.4612
                  CHANNELS 3 Zrotation Xrotation Yrotation
                  JOINT LeftHandIndex2
                  {
                    OFFSET 3.3146 -0.808304 0.5841
                    CHANNELS 3 Zrotation Xrotation Yrotation
                    JOINT LeftHandIndex3
                    {
                      OFFSET 2.2628 -0.552002 0.3989
                      CHANNELS 3 Zrotation Xrotation Yrotation
                      End Site
                      {
                        OFFSET 1.6102 -0.4807 0.2612
                      }
                    }
                  }
                }
                JOINT LeftHandMiddle1
                {
                  OFFSET 8.9937 0.895004 0.2143
                  CHANNELS 3 Zrotation Xrotation Yrotation
                  JOINT LeftHandMiddle2
                  {
                    OFFSET 4.0984 0.0113983 -0.0242
                    CHANNELS 3 Zrotation Xrotation Yrotation
                    JOINT LeftHandMiddle3
                    {
                      OFFSET 2.2716 0.00689697 -0.0138001
                      CHANNELS 3 Zrotation Xrotation Yrotation
                      End Site
                      {
                        OFFSET 2.0404 -0.1441 0.0027
                      }
                    }
                  }
                }
                JOINT LeftHandRing1
                {
                  OFFSET 8.5234 0.597198 -2.0164
                  CHANNELS 3 Zrotation Xrotation Yrotation
                  JOINT LeftHandRing2
                  {
                    OFFSET 3.7188 -0.188293 -0.2328
                    CHANNELS 3 Zrotation Xrotation Yrotation
                    JOINT LeftHandRing3
                    {
                      OFFSET 2.1191 -0.106598 -0.1332
                      CHANNELS 3 Zrotation Xrotation Yrotation
                      End Site
                      {
                        OFFSET 1.8737 -0.2304 -0.0886
                      }
                    }
                  }
                }
                JOINT LeftHandPinky1
                {
                  OFFSET 7.9094 -0.601089 -3.4825
                  CHANNELS 3 Zrotation Xrotation Yrotation
                  JOINT LeftHandPinky2
                  {
                    OFFSET 2.2874 -0.477005 -0.6314
                    CHANNELS 3 Zrotation Xrotation Yrotation
                    JOINT LeftHandPinky3
                    {
                      OFFSET 1.6774 -0.349396 -0.4633
                      CHANNELS 3 Zrotation Xrotation Yrotation
                      End Site
                      {
                        OFFSET 1.4888 -0.4091 -0.3416
                      }
                    }
                  }
                }
                JOINT LeftHandThumb1
                {
                  OFFSET 1.833 -1.3875 1.3896
                  CHANNELS 3 Zrotation Xrotation Yrotation
                  JOINT LeftHandThumb2
                  {
                    OFFSET 3.4129 -1.121 2.5732
                    CHANNELS 3 Zrotation Xrotation Yrotation
                    JOINT LeftHandThumb3
                    {
                      OFFSET 2.2474 -0.804199 1.6192
                      CHANNELS 3 Zrotation Xrotation Yrotation
                      End Site
                      {
                        OFFSET 1.6527 -0.5689 1.1317
                      }
                    }
                  }
                }
              }
            }
          }
        }
        JOINT RightShoulder
        {
          OFFSET -2.2086 21.1115 7.2329
          CHANNELS 3 Zrotation Xrotation Yrotation
          JOINT RightArm
          {
            OFFSET -13.1216 3.0287 -4.9007
            CHANNELS 3 Zrotation Xrotation Yrotation
            JOINT RightForeArm
            {
              OFFSET -27.4081 -0.0973053 -0.2375
              CHANNELS 3 Zrotation Xrotation Yrotation
              JOINT RightHand
              {
                OFFSET -22.8641 0.0664063 -0.1369
                CHANNELS 3 Zrotation Xrotation Yrotation
                JOINT RightHandIndex1
                {
                  OFFSET -8.8614 0.774994 2.4612
                  CHANNELS 3 Zrotation Xrotation Yrotation
                  JOINT RightHandIndex2
                  {
                    OFFSET -3.3146 -0.808304 0.5841
                    CHANNELS 3 Zrotation Xrotation Yrotation
                    JOINT RightHandIndex3
                    {
                      OFFSET -2.2628 -0.552002 0.3989
                      CHANNELS 3 Zrotation Xrotation Yrotation
                      End Site
                      {
                        OFFSET -1.6102 -0.4807 0.2612
                      }
                    }
                  }
                }
                JOINT RightHandMiddle1
                {
                  OFFSET -8.9937 0.894989 0.2143
                  CHANNELS 3 Zrotation Xrotation Yrotation
                  JOINT RightHandMiddle2
                  {
                    OFFSET -4.0984 0.0113983 -0.0242
                    CHANNELS 3 Zrotation Xrotation Yrotation
                    JOINT RightHandMiddle3
                    {
                      OFFSET -2.2716 0.00691223 -0.0138001
                      CHANNELS 3 Zrotation Xrotation Yrotation
                      End Site
                      {
                        OFFSET -2.0404 -0.1441 0.0027
                      }
                    }
                  }
                }
                JOINT RightHandRing1
                {
                  OFFSET -8.5234 0.597198 -2.0164
                  CHANNELS 3 Zrotation Xrotation Yrotation
                  JOINT RightHandRing2
                  {
                    OFFSET -3.7188 -0.188309 -0.2328
                    CHANNELS 3 Zrotation Xrotation Yrotation
                    JOINT RightHandRing3
                    {
                      OFFSET -2.1191 -0.106598 -0.1332
                      CHANNELS 3 Zrotation Xrotation Yrotation
                      End Site
                      {
                        OFFSET -1.8737 -0.2304 -0.0886
                      }
                    }
                  }
                }
                JOINT RightHandPinky1
                {
                  OFFSET -7.9094 -0.601105 -3.4825
                  CHANNELS 3 Zrotation Xrotation Yrotation
                  JOINT RightHandPinky2
                  {
                    OFFSET -2.2874 -0.477005 -0.6314
                    CHANNELS 3 Zrotation Xrotation Yrotation
                    JOINT RightHandPinky3
                    {
                      OFFSET -1.6774 -0.349396 -0.4633
                      CHANNELS 3 Zrotation Xrotation Yrotation
                      End Site
                      {
                        OFFSET -1.4888 -0.4091 -0.3416
                      }
                    }
                  }
                }
                JOINT RightHandThumb1
                {
                  OFFSET -1.833 -1.38751 1.3896
                  CHANNELS 3 Zrotation Xrotation Yrotation
                  JOINT RightHandThumb2
                  {
                    OFFSET -3.41299 -1.12099 2.5732
                    CHANNELS 3 Zrotation Xrotation Yrotation
                    JOINT RightHandThumb3
                    {
                      OFFSET -2.24741 -0.804108 1.6192
                      CHANNELS 3 Zrotation Xrotation Yrotation
                      End Site
                      {
                        OFFSET -1.6527 -0.5689 1.1317
                      }
                    }
                  }
                }
              }
            }
          }
        }
      }
    }
  }
  JOINT RightUpLeg
  {
    OFFSET -9.1966 3.8861 -0.7581
    CHANNELS 3 Zrotation Xrotation Yrotation
    JOINT RightLeg
    {
      OFFSET -0.7359 -41.0265 0
      CHANNELS 3 Zrotation Xrotation Yrotation
      JOINT RightFoot
      {
        OFFSET 0 -40.2855 0
        CHANNELS 3 Zrotation Xrotation Yrotation
        JOINT RightToeBase
        {
          OFFSET 0 -5.6122 11.7359
          CHANNELS 3 Zrotation Xrotation Yrotation
          End Site
          {
            OFFSET 0 0 7.8731
          }
        }
      }
    }
  }
  JOINT LeftUpLeg
  {
    OFFSET 9.1965 3.8864 -0.7581
    CHANNELS 3 Zrotation Xrotation Yrotation
    JOINT LeftLeg
    {
      OFFSET 0.7359 -41.0268 0
      CHANNELS 3 Zrotation Xrotation Yrotation
      JOINT LeftFoot
      {
        OFFSET 0 -40.2855 0
        CHANNELS 3 Zrotation Xrotation Yrotation
        JOINT LeftToeBase
        {
          OFFSET 0 -5.6122 11.7359
          CHANNELS 3 Zrotation Xrotation Yrotation
          End Site
          {
            OFFSET 0 0 7.8731
          }
        }
      }
    }
  }
}
MOTION
Frames:	4
Frame Time:	0.0333333
0.865143 66.5628 26.8725 0 21.4492 -0 0.345334 1.1903 -0.486164 0.700986 2.3776 -0.979814 0.700986 2.3776 -0.979814 -4.26947e-006 -1.33704 -1.46904e-005 5.23044e-007 -10.147 -4.24049e-007 -23.9789 31.0834 -6.22371 -81.6152 -52.4316 -56.2851 -86.9853 -2.66766 -15.2571 153.569 35.9301 -130.493 -2.17976e-007 2.18172e-007 8.58825e-008 -5.8127e-007 5.81791e-007 2.2902e-007 -2.17976e-007 2.18172e-007 8.58825e-008 -2.17976e-007 2.18172e-007 8.58825e-008 -0.0147275 -9.1227e-005 2.99223e-006 -2.17976e-007 2.18161e-007 8.59107e-008 -2.17976e-007 2.18172e-007 8.58825e-008 -0.0186872 -0.00116952 5.58054e-005 -2.17975e-007 2.18158e-007 8.59203e-008 -2.17976e-007 2.18172e-007 8.58825e-008 -0.0123768 -0.00327526 0.000679761 -2.17972e-007 2.18164e-007 8.59122e-008 -2.17976e-007 2.18172e-007 8.58825e-008 -5.8127e-007 5.81791e-007 2.2902e-007 -2.17976e-007 2.18172e-007 8.58825e-008 23.0653 29.2007 6.51993 81.4893 -52.581 56.2909 86.6305 -2.82031 15.411 -158.429 37.2952 138.179 -5.0847e-007 -5.08905e-007 2.01178e-007 -1.81596e-006 -1.81752e-006 7.18491e-007 -5.81108e-007 -5.81606e-007 2.29917e-007 -5.0847e-007 -5.08905e-007 2.01178e-007 0.015054 -9.34233e-005 3.99745e-007 -5.81106e-007 -5.81576e-007 2.29994e-007 -5.0847e-007 -5.08905e-007 2.01178e-007 0.0190015 -0.00118887 -5.03315e-005 -5.81104e-007 -5.81568e-007 2.3002e-007 -5.0847e-007 -5.08905e-007 2.01178e-007 0.0121338 -0.00321262 -0.000668936 -5.81097e-007 -5.81585e-007 2.29995e-007 -5.0847e-007 -5.08905e-007 2.01178e-007 -1.81596e-006 -1.81752e-006 7.18491e-007 -5.81108e-007 -5.81606e-007 2.29917e-007 -24.6357 -42.1236 -26.1549 5.19052 31.2836 -5.21818 -4.84299 5.48285 -10.5475 -3.18055e-015 -1.59028e-015 -6.36111e-015 23.5643 -42.6905 27.0742 -5.19895 32.7521 5.36637 6.46071 3.71703 9.61495 -3.97569e-015 6.36111e-015 3.18055e-015 
0.865128 66.5579 26.6117 0 21.9001 -0 0.34644 1.05975 -0.484371 0.70201 2.11653 -0.975393 0.70201 2.11652 -0.975392 1.58724e-005 -2.02054 -2.71583e-005 8.70926e-008 -11.1958 -2.8652e-007 -23.9789 31.0834 -6.22371 -81.6152 -52.4316 -56.2851 -86.9853 -2.66765 -15.2571 153.777 36.1426 -130.534 -7.2652e-008 7.27087e-008 2.86806e-008 1.01713e-006 -1.01792e-006 -4.01529e-007 -2.81387e-031 -1.0138e-014 -1.59028e-015 -7.2652e-008 7.27087e-008 2.86806e-008 -0.0145372 -9.15534e-005 2.20723e-006 -9.54166e-015 -2.78299e-015 1.59028e-015 -7.2652e-008 7.27087e-008 2.86806e-008 -0.018718 -0.00117365 5.97526e-005 -6.36111e-015 1.49089e-014 3.97569e-015 -7.2652e-008 7.27087e-008 2.86806e-008 -0.0121372 -0.00321583 0.00066989 -3.18055e-015 -1.27222e-014 7.95139e-016 -7.2652e-008 7.27087e-008 2.86806e-008 1.01713e-006 -1.01792e-006 -4.01529e-007 -2.81387e-031 -1.0138e-014 -1.59028e-015 23.0653 29.2007 6.51992 81.4893 -52.5811 56.2909 86.6305 -2.82031 15.4109 -158.672 37.4847 138.247 7.26322e-008 7.26874e-008 -2.87865e-008 2.17897e-007 2.18062e-007 -8.63596e-008 1.45264e-007 1.45375e-007 -5.75731e-008 7.26322e-008 7.26874e-008 -2.87865e-008 0.0150257 -9.25113e-005 -3.19797e-006 1.45264e-007 1.45367e-007 -5.75923e-008 7.26322e-008 7.26874e-008 -2.87865e-008 0.0189749 -0.001188 -5.81378e-005 -3.92187e-007 5.71556e-007 -4.85177e-008 7.26322e-008 7.26874e-008 -2.87865e-008 0.012199 -0.00323082 -0.000679207 1.45262e-007 1.4537e-007 -5.75926e-008 7.26322e-008 7.26874e-008 -2.87865e-008 2.17897e-007 2.18062e-007 -8.63596e-008 1.45264e-007 1.45375e-007 -5.75731e-008 -24.621 -42.7674 -25.6887 5.19185 31.2893 -5.22174 -4.6553 5.71757 -11.1579 -2.88608e-006 9.7569e-007 -5.65967e-008 23.5604 -43.3349 26.6775 -5.19999 32.7567 5.37086 6.31367 3.95834 10.1506 7.95139e-016 -1.59028e-015 9.54166e-015 
0.865109 66.5534 26.351 0 22.351 -0 0.347551 0.929254 -0.482577 0.703056 1.85553 -0.970973 0.703056 1.85552 -0.970973 -3.03734e-005 -2.70517 2.23347e-005 1.00563e-007 -12.2448 8.30869e-007 -23.9789 31.0833 -6.2237 -81.6152 -52.4316 -56.2851 -86.9854 -2.66767 -15.2571 153.985 36.355 -130.576 3.63226e-007 -3.63468e-007 -1.43669e-007 7.26451e-007 -7.26935e-007 -2.87337e-007 5.08516e-007 -5.08855e-007 -2.01136e-007 3.63226e-007 -3.63468e-007 -1.43669e-007 -0.0145458 -9.01553e-005 3.95017e-006 -2.69643e-008 -9.44867e-007 -1.9476e-007 3.63226e-007 -3.63468e-007 -1.43669e-007 -0.0187663 -0.0011748 5.25382e-005 5.08512e-007 -5.08822e-007 -2.01225e-007 3.63226e-007 -3.63468e-007 -1.43669e-007 -0.0121778 -0.00322425 0.000673394 5.08506e-007 -5.08836e-007 -2.01204e-007 3.63226e-007 -3.63468e-007 -1.43669e-007 7.26451e-007 -7.26935e-007 -2.87337e-007 5.08516e-007 -5.08855e-007 -2.01136e-007 23.0653 29.2006 6.52002 81.4892 -52.5811 56.2909 86.6305 -2.82031 15.4109 -158.916 37.674 138.317 -6.36111e-015 -3.97569e-015 -0 -7.26258e-008 -7.2674e-008 2.88334e-008 8.7151e-007 8.72088e-007 -3.46001e-007 -6.36111e-015 -3.97569e-015 -0 0.0150246 -9.11899e-005 -1.96144e-006 8.71507e-007 8.72043e-007 -3.46116e-007 -6.36111e-015 -3.97569e-015 -0 0.0190738 -0.001193 -5.8254e-005 8.71503e-007 8.72031e-007 -3.46155e-007 -6.36111e-015 -3.97569e-015 -0 0.0123157 -0.00326138 -0.000686535 8.71493e-007 8.72057e-007 -3.46119e-007 -6.36111e-015 -3.97569e-015 -0 -7.26258e-008 -7.2674e-008 2.88334e-008 8.7151e-007 8.72088e-007 -3.46001e-007 -24.5991 -43.4112 -25.2175 5.19322 31.2951 -5.22518 -4.46495 5.95024 -11.7695 -5.97301e-007 -1.0349e-006 -1.73061e-007 23.5505 -43.9792 26.2767 -5.20111 32.7616 5.37527 6.16429 4.19808 10.6871 -8.16529e-007 2.18152e-007 -7.82864e-008 
0.865084 66.5494 26.0902 0 22.8019 -0 0.348648 0.798774 -0.480758 0.704088 1.59452 -0.966506 0.704088 1.59453 -0.966507 -4.87696e-006 -3.38842 2.61426e-006 -1.10275e-007 -13.2936 -2.45756e-007 -23.9789 31.0833 -6.22371 -81.6152 -52.4316 -56.2851 -86.9853 -2.66765 -15.2571 154.195 36.5672 -130.619 7.26382e-008 -7.26783e-008 -2.87868e-008 6.0205e-007 3.63246e-007 -3.41807e-008 7.26381e-008 -7.26783e-008 -2.87868e-008 7.26382e-008 -7.26783e-008 -2.87868e-008 -0.0144938 -9.01159e-005 4.06299e-006 7.26379e-008 -7.26747e-008 -2.8796e-008 7.26382e-008 -7.26783e-008 -2.87868e-008 -0.0186959 -0.00116988 5.94353e-005 7.26375e-008 -7.26737e-008 -2.87994e-008 7.26382e-008 -7.26783e-008 -2.87868e-008 -0.0122211 -0.00323632 0.000671603 7.26367e-008 -7.26757e-008 -2.87966e-008 7.26382e-008 -7.26783e-008 -2.87868e-008 6.0205e-007 3.63246e-007 -3.41807e-008 7.26381e-008 -7.26783e-008 -2.87868e-008 23.0653 29.2007 6.51998 81.4892 -52.581 56.2909 86.6305 -2.82031 15.411 -159.161 37.863 138.388 7.26194e-008 7.26606e-008 -2.88803e-008 -9.65542e-032 6.95746e-015 7.95139e-016 7.26193e-008 7.26606e-008 -2.88803e-008 7.26194e-008 7.26606e-008 -2.88803e-008 0.0150445 -9.10958e-005 -4.42471e-006 7.26191e-008 7.26569e-008 -2.88899e-008 7.26194e-008 7.26606e-008 -2.88803e-008 0.0191518 -0.00119831 -4.93203e-005 7.26188e-008 7.26559e-008 -2.88932e-008 7.26194e-008 7.26606e-008 -2.88803e-008 0.0122694 -0.00324686 -0.000677557 7.2618e-008 7.2658e-008 -2.88901e-008 7.26194e-008 7.26606e-008 -2.88803e-008 -9.65542e-032 6.95746e-015 7.95139e-016 7.26193e-008 7.26606e-008 -2.88803e-008 -24.5697 -44.0547 -24.7411 5.19468 31.3013 -5.22853 -4.27202 6.18063 -12.382 -8.16078e-007 -2.1874e-007 -8.16255e-008 23.5344 -44.6236 25.8716 -5.20233 32.7669 5.37964 6.01259 4.43621 11.2244 4.77083e-015 3.18055e-015 -0 
